<?xml version="1.0" encoding="utf-8"?>
<!-- Generator: Adobe Illustrator 19.2.1, SVG Export Plug-In . SVG Version: 6.00 Build 0)  -->
<svg version="1.1" id="layer" xmlns="http://www.w3.org/2000/svg" xmlns:xlink="http://www.w3.org/1999/xlink" x="0px" y="0px"
	 viewBox="0 0 652 652" style="enable-background:new 0 0 652 652;" xml:space="preserve">
<style type="text/css">
	.st0{fill:#E9B538;}
	.st1{fill:#00644C;}
</style>
<g>
	<path class="st0" d="M144.3,561.2c0.3-0.4,0.7-0.6,1.2-0.4l4.6,2c0.4,0.1,0.5,0.7,0.3,1c-2.3,4-6.8,6.7-11.8,6.7
		c-7.4,0-13.6-6-13.6-13.3c0-7.3,6.2-13.3,13.6-13.3c5,0,9.4,2.7,11.8,6.6c0.2,0.3,0.1,0.9-0.3,1l-4.5,2c-0.4,0.2-0.9,0.1-1.2-0.3
		c-1.3-1.8-3.4-3-5.8-3c-3.9,0-7,3.1-7,7c0,3.9,3.1,7,7,7C140.9,564.1,143,563,144.3,561.2"/>
	<path class="st0" d="M172,545.1c0-0.4,0.4-0.8,0.8-0.8h5c0.4,0,0.8,0.4,0.8,0.8v24.1c0,0.4-0.4,0.8-0.8,0.8h-5
		c-0.4,0-0.8-0.4-0.8-0.8v-8.1c0-0.4-0.3-0.7-0.7-0.7h-9.1c-0.4,0-0.7,0.3-0.7,0.7v8.1c0,0.4-0.4,0.8-0.8,0.8h-5
		c-0.4,0-0.8-0.4-0.8-0.8v-24.1c0-0.4,0.4-0.8,0.8-0.8h5c0.4,0,0.8,0.4,0.8,0.8v8.5c0,0.4,0.3,0.7,0.7,0.7h9.1
		c0.4,0,0.7-0.3,0.7-0.7V545.1z"/>
	<path class="st0" d="M192.7,545c0.2-0.4,0.6-0.7,1.1-0.7h4.9c0.5,0,0.9,0.3,1.1,0.7l9.8,24.2c0.1,0.3-0.1,0.7-0.5,0.7h-5.6
		c-0.5,0-0.9-0.3-1.1-0.7l-0.9-2.4c-0.1-0.4-0.5-0.6-0.9-0.6h-8.8c-0.4,0-0.8,0.3-0.9,0.6l-0.9,2.4c-0.2,0.4-0.6,0.7-1.1,0.7h-5.6
		c-0.4,0-0.6-0.4-0.5-0.7L192.7,545z M198.4,560.3c0.3,0,0.5-0.3,0.4-0.6l-2.3-6.3c-0.1-0.2-0.4-0.2-0.5,0l-2.4,6.3
		c-0.1,0.3,0.1,0.6,0.4,0.6H198.4z"/>
	<path class="st0" d="M220.4,569.2c0,0.4-0.4,0.8-0.8,0.8h-5c-0.4,0-0.8-0.4-0.8-0.8v-24.1c0-0.4,0.4-0.8,0.8-0.8h5
		c0.5,0,0.9,0.3,1.1,0.7l6.8,13.4c0.1,0.3,0.5,0.3,0.6,0l6.8-13.4c0.2-0.4,0.7-0.7,1.1-0.7h5c0.4,0,0.8,0.4,0.8,0.8v24.1
		c0,0.4-0.4,0.8-0.8,0.8h-5c-0.4,0-0.8-0.4-0.8-0.8v-11.7c0-0.2-0.2-0.2-0.3-0.1l-4.7,9.4c-0.2,0.4-0.7,0.7-1.1,0.7h-2.7
		c-0.5,0-0.9-0.3-1.1-0.7l-4.7-9.4c-0.1-0.2-0.3-0.1-0.3,0.1V569.2z"/>
	<path class="st0" d="M248.6,570c-0.4,0-0.8-0.4-0.8-0.8v-24.1c0-0.4,0.4-0.8,0.8-0.8h10.5c6.8,0,10.1,4.7,10.1,9.8
		c0,5.4-3.3,10-10.1,10h-4.1c-0.4,0-0.7,0.3-0.7,0.7v4.4c0,0.4-0.4,0.8-0.8,0.8H248.6z M258.8,550.3h-3.7c-0.4,0-0.7,0.3-0.7,0.7
		v6.5c0,0.4,0.3,0.7,0.7,0.7h3.7c2.8,0,3.8-1.7,3.8-4C262.6,552.1,261.6,550.3,258.8,550.3"/>
	<path class="st0" d="M279.7,545c0.2-0.4,0.6-0.7,1.1-0.7h4.9c0.5,0,0.9,0.3,1.1,0.7l9.8,24.2c0.1,0.3-0.1,0.7-0.5,0.7h-5.6
		c-0.5,0-0.9-0.3-1.1-0.7l-0.9-2.4c-0.1-0.4-0.5-0.6-0.9-0.6h-8.8c-0.4,0-0.8,0.3-0.9,0.6l-0.9,2.4c-0.2,0.4-0.6,0.7-1.1,0.7h-5.6
		c-0.4,0-0.6-0.4-0.5-0.7L279.7,545z M285.4,560.3c0.3,0,0.5-0.3,0.4-0.6l-2.3-6.3c-0.1-0.2-0.4-0.2-0.5,0l-2.4,6.3
		c-0.1,0.3,0.1,0.6,0.4,0.6H285.4z"/>
	<path class="st0" d="M311.7,560.5c-0.4,0-0.8-0.4-0.8-0.8v-3.9c0-0.4,0.4-0.8,0.8-0.8h10.8c0.4,0,0.8,0.4,0.8,0.8v13.4
		c0,0.4-0.4,0.8-0.8,0.8h-3.6c-0.4,0-0.8-0.4-0.8-0.8v-0.9c0-0.2-0.3-0.3-0.4-0.1c-1.3,1.5-3.7,2.4-6.1,2.4c-7.4,0-13.6-6-13.6-13.3
		c0-7.3,6.2-13.3,13.6-13.3c4.1,0,7.9,1.9,10.4,4.7c0.3,0.3,0.2,0.8-0.1,1.1l-4.1,2.7c-0.4,0.3-0.9,0.2-1.2-0.1c-1.3-1.3-3-2-5-2
		c-3.9,0-7,3.1-7,7c0,3.9,3.1,7,7,7c2.2,0,4.1-1.1,5.3-2.7c0.1-0.1,0.2-0.4,0.2-0.6v-0.1c0-0.2-0.2-0.3-0.3-0.3H311.7z"/>
	<path class="st0" d="M335.2,569.2c0,0.4-0.4,0.8-0.8,0.8h-5c-0.4,0-0.8-0.4-0.8-0.8v-24.1c0-0.4,0.4-0.8,0.8-0.8h4
		c0.5,0,1,0.2,1.3,0.6l10.6,13.2c0.1,0.2,0.4,0.1,0.4-0.1v-12.9c0-0.4,0.4-0.8,0.8-0.8h5c0.4,0,0.8,0.4,0.8,0.8v24.1
		c0,0.4-0.4,0.8-0.8,0.8h-4c-0.5,0-1-0.2-1.3-0.6l-10.6-13.2c-0.1-0.2-0.4-0.1-0.4,0.1V569.2z"/>
	<path class="st0" d="M358.9,570c-0.4,0-0.8-0.4-0.8-0.8v-24.1c0-0.4,0.4-0.8,0.8-0.8h18.2c0.4,0,0.8,0.4,0.8,0.8v4.8
		c0,0.4-0.4,0.8-0.8,0.8h-11.7c-0.4,0-0.7,0.3-0.7,0.7v2.4c0,0.4,0.3,0.7,0.7,0.7h9.4c0.4,0,0.8,0.4,0.8,0.8v4.4
		c0,0.4-0.4,0.8-0.8,0.8h-9.4c-0.4,0-0.7,0.3-0.7,0.7v2c0,0.4,0.3,0.7,0.7,0.7h11.7c0.4,0,0.8,0.4,0.8,0.8v4.8
		c0,0.4-0.4,0.8-0.8,0.8H358.9z"/>
	<path class="st0" d="M395.1,570c-0.4,0-0.8-0.4-0.8-0.8v-24.1c0-0.4,0.4-0.8,0.8-0.8h12c5.5,0,8.3,3,8.3,7.1c0,2.3-1,4-2.6,5.1
		c-0.2,0.2-0.2,0.5,0,0.6c2.3,1.1,3.7,2.9,3.7,5.7c0,4.3-3.2,7.2-8.4,7.2H395.1z M406.7,550.3h-5.1c-0.4,0-0.7,0.3-0.7,0.7v2.8
		c0,0.4,0.3,0.7,0.7,0.7h4.8c1.8,0,2.4-0.8,2.4-2C408.8,551.1,408.1,550.3,406.7,550.3 M407.5,559.5h-5.9c-0.4,0-0.7,0.3-0.7,0.7
		v3.2c0,0.4,0.3,0.7,0.7,0.7h5.9c1.8,0,2.4-1,2.4-2.3C409.9,560.4,409.3,559.5,407.5,559.5"/>
	<path class="st0" d="M429.1,545c0.2-0.4,0.6-0.7,1.1-0.7h4.9c0.5,0,0.9,0.3,1.1,0.7l9.8,24.2c0.1,0.3-0.1,0.7-0.5,0.7h-5.6
		c-0.5,0-0.9-0.3-1.1-0.7l-0.9-2.4c-0.1-0.4-0.5-0.6-0.9-0.6h-8.8c-0.4,0-0.8,0.3-0.9,0.6l-0.9,2.4c-0.2,0.4-0.6,0.7-1.1,0.7h-5.6
		c-0.4,0-0.6-0.4-0.5-0.7L429.1,545z M434.8,560.3c0.3,0,0.5-0.3,0.4-0.6l-2.3-6.3c-0.1-0.2-0.4-0.2-0.5,0l-2.4,6.3
		c-0.1,0.3,0.1,0.6,0.4,0.6H434.8z"/>
	<path class="st0" d="M450.3,545.1c0-0.4,0.4-0.8,0.8-0.8h11.8c6.6,0,9.6,4.3,9.6,9.4c0,3.4-1.4,6.6-4.5,8.2
		c-0.3,0.2-0.4,0.6-0.2,0.9l4.7,6.6c0.2,0.3,0,0.7-0.3,0.7h-6.3c-0.5,0-1-0.3-1.3-0.7l-4-5.7c-0.2-0.3-0.7-0.5-1.1-0.5h-2
		c-0.4,0-0.7,0.3-0.7,0.7v5.4c0,0.4-0.4,0.8-0.8,0.8h-5c-0.4,0-0.8-0.4-0.8-0.8V545.1z M462.5,550.3h-5c-0.4,0-0.7,0.3-0.7,0.7v5.5
		c0,0.4,0.3,0.7,0.7,0.7h5c2.6,0,3.6-1.6,3.6-3.4C466.1,551.8,465.1,550.3,462.5,550.3"/>
	<path class="st1" d="M273.6,480.3c0.2-0.5-0.5-0.5-0.7-0.2c0,0.2,0.2,0.5,0.2,0.7L273.6,480.3z"/>
	<path class="st1" d="M277.2,495.7c-0.5,0.7-0.2,1.2,0.5,1.4C277.7,496.4,277.7,495.9,277.2,495.7"/>
	<path class="st1" d="M273.6,484.6c0-0.2-0.2-0.5-0.5-0.7l-0.2,0.5c0,0.2,0.2,0.2,0.5,0.5L273.6,484.6z"/>
	<path class="st1" d="M370.8,370.3c-4.7-3.1-13.3-1.2-12.9,3.9l1.2,5.1C363.4,393.4,379.4,375.4,370.8,370.3"/>
	<path class="st1" d="M482.9,490.6c1.4-0.5,1.4-0.5,1.9-1.7C483.7,489.2,483.2,489.9,482.9,490.6"/>
	<path class="st1" d="M518.1,454.3v0.2c0,0,0.2,0,0.2,0.2v-0.2L518.1,454.3z"/>
	<path class="st1" d="M537.1,454.3c0-1-0.7-0.7-1.2-1c-0.2-0.2-0.5-0.7-0.5-1C534.2,453.8,535.5,454.8,537.1,454.3"/>
	<polygon class="st1" points="503.2,408.3 503,408.1 503,408.3 	"/>
	<path class="st1" d="M50.2,287.5c2.6,5.3,7,11.5,13.2,9.4c4.6-1.4,9.6-7.5,10.4-12c1.7-8.9,0.2-18.5,0.7-27.9
		c1-19.3,2.4-38.3,4.1-57.5c0-1.4,2.6-3.6,4.6-3.8c12-2.6,24.3-4.3,34.4-12.5c1.4-1.2,4.1-2.1,3.4-4.3c0.1-2.5-3.6-1.7-5.3-1.7
		c-9.9,0.7-19.5,1.9-29.1,2.2c-2.4,0-5.5-2.2-6.7-4.3c-1-1.9,0.5-5,0.7-7.7c1.2-9.6,3.6-19.5,2.9-28.9c-1-10.6-1.9-21.9-8.9-31
		c-1.7-1.9-2.9-3.4,1.7-4.6c10.1-2.4,20-5.5,29.6-9.6c3.6-1.4,9.7-3.6,9.6-8.2c-0.1-3.2-5.4-4.2-9.9-3.8c-2,0.2-4.1,0-6,0
		c-14.4,0.5-28.9,1-43.5,1.2c-5.1,0.2-8.2,5-6.3,9.9c1.2,2.9,2.9,5.8,2.9,8.7c-0.7,16.6-1.9,33-3.1,49.6c-2.4,30.6-5.1,61.1-7.2,89
		C43.7,257.4,42.7,273.3,50.2,287.5"/>
	<path class="st1" d="M132.9,267.5c0,7.5,0.2,15.2,3.8,21.7c2.2,3.9,5.8,7,10.1,7.9c4.1,0.7,9.1-1.2,10.8-5.3
		c1.4-3.8,0.3-4.1,3.3-7.1c1.6-1.6,2.7-1.9,8.1-1.1c5.8,1,10.1,0.5,15.4,0.5c3.6,0,6.4-0.1,9.5-2.5c1.4-1,2.2-2.9,1.9-4.6
		c0-1.7-1-3.4-2.6-4.3c-1.4-1-3.4-1.4-5.3-1.4c-2.9-0.2-6,0-8.4-0.5c-5.5-0.7-10.8-2.4-15.9-4.6c-1.7-0.7-3.8-1.7-4.8-3.4
		c-1-1.7-1-3.6-1-5.5c-0.2-36.1-0.2-72.2-0.5-108c0-22.8-0.7-47.2-14.2-65.7c-1-1.2-1.9-2.4-3.4-2.6c-1.9-0.5-3.9,1-4.6,2.9
		c-1.9,3.9-1,10.6-1,14.9c-0.2,5.8-0.5,11.8-0.5,17.6c-0.2,11.5-0.2,22.9-0.5,34.4C132.7,189.5,132.4,228.5,132.9,267.5"/>
	<path class="st1" d="M324.9,92.6c7,3.6,19.3,1.1,29.6,1.1c-5.8,16.7-5.3,71.3-5.6,75.8c-1,15.9-2.4,31.5-3.4,47.4
		c-0.5,8.2-2.9,40.4-2.6,48.6c0,3.1,1.9,6,1.9,8.9c0.5,8.9,5,15.6,13.5,18.3c5.1,1.4,13.7-6.5,13.7-13.2c0.2-7.9-0.2-15.9,0-23.6
		c1.2-25.3,4.1-74.4,5-99.6c1-20.2-0.2-40.9-0.7-61.4c-0.2-1.2-0.2-2.4,0.2-3.6c1.7-4.1,11.3-4.1,14.9-4.6
		c11.5-1.9,22.9-3.6,34.4-5.8c1.4-0.2,2.6-0.4,3.6-1.6c0.7-1,0.9-2.4,0.7-4.6c0.2-4.3-5.5-4.3-8.4-4.3c-14.4,0.7-29.1,1.7-43.6,3.1
		c-11.1,1-22.1,2.4-33.9,3.9c-8.9,1-25.7,2.5-25.7,6.5C318.7,89.4,321.6,91,324.9,92.6"/>
	<path class="st1" d="M417.4,160.7c-2.3,29.9-4.3,59.8-3.7,89.9v5.7c0.2,5.5,0.7,11,2.5,16c1.8,4.8,5.7,9.6,10.5,10.7
		c5.9,1.6,12.1-1.8,17.4-5c8.9-5.2,17.8-10.7,26.7-16c1.1-0.7,2.5-1.8,2.5-3.2c0-0.9-0.5-1.8-1.1-2.5c-3.2-3.4-10.5-4.3-14.4-2
		c-1.8,0.9-3.2,2.7-4.8,3.7c-3,1.8-5.9,3.4-8.7,5c-0.7,0.2-1.4,0.4-1.8,0.2c-0.5-0.4-0.5-1.1-0.5-1.6c0.5-14.4,0.9-28.5,1.6-42.7
		c0.2-7.3,0.5-14.2,1.6-21.2c0.4-2.5,0.9-4.6,1.6-6.8c0.7-2.1,0.5-4.1,2.1-5.5c1.1-0.9,2.5-1.4,3.9-1.8c4.8-1.6,9.8-3.4,14.6-4.8
		c1.6-0.4,3-0.4,4.6-0.4c1.1-0.2,2.3-0.2,3.2-1.1c0.2-0.2,1.4-2.7,1.6-2.7c0.5-1.4,1.1-2.7,1.4-4.1c0.2-1.6-0.2-3.2-1.4-4.1
		c-1.1-1.4-3.2-1.4-5-1.1c-3.9,0.2-8,0-12.1,0.5c-3.4,0.5-6.6,1.4-10,1.4c-1.4-0.2-3.4,0.2-4.3-1.1c-0.5-1.1-0.5-2.3-0.5-3.4
		c-0.5-18.3-1.8-43.7,0.2-54.8c-0.2,0.2,7.5-3.6,8.2-3.9c3.7-1.4,7.8-1.8,11.4-2.1c1.6,0,3,0,4.3-0.7c1.4-0.4,2.5-1.4,3-3
		c1.1-3.4-2.1-6.8-4.8-8.2c-7.1-3.9-15.3-2.1-22.6-0.5c-8.7,1.8-21-5.5-22.1,7.5C420.9,118.1,419,139.5,417.4,160.7"/>
	<path class="st1" d="M501.2,277.9c9.4,7.1,22.1,16.7,34.5,10.7c11.4-5.2,16.7-23.7,19.2-34.7c3.4-14.4,3.4-29.4,0.5-43.8
		c-4.8-24.2-17.1-46.6-31.5-66.9c-7.1-10-16.7-22.6-11.6-35.6c2.5-6.8,10.7-12.8,18.3-9.8c8,3,10.1,13.2,15.1,20.1
		c1.1,1.1,2.7,2.5,4.1,1.6c0.9-0.7,0.9-1.8,0.9-3c0-13.9-10.5-26.9-24-30.8c-13.9-4.1-26,11.9-27.9,24.4c-1.1,8.2,1.1,16.4,3.9,24.4
		c9.8,27.6,27.8,53.9,26.9,83.1c-0.4,13.2-4.6,26.3-11.4,37.4c-3,5-8,10.5-13.9,9.4c-13.2-2.3-11.4-28.1-1.4-33.3
		c1.4-0.9,3.2-1.4,4.1-2.7c1.1-1.6,0.7-4.1-0.7-5.5c-1.6-1.4-3.7-1.6-5.7-1.4c-6.4,1.1-9.8,8-11.6,14.1c-2.5,7.8-3.2,14.8-2.1,21
		C488.4,264.6,492.8,271.7,501.2,277.9"/>
	<path class="st1" d="M49.6,354c-0.2,0.5-0.2,0.3,0.2,0.8C50,354.1,50.1,354.3,49.6,354"/>
	<path class="st1" d="M50.4,355.6c-0.2,0.3-0.2,0.5,0.2,0.6C50.8,355.9,50.8,355.7,50.4,355.6"/>
</g>
<g>
	<path class="st1" d="M51.5,357.3c0,0-0.2-0.2-0.3-0.2C50.8,357,50.9,358.3,51.5,357.3"/>
	<path class="st1" d="M593.4,361.9c-4.8,10.4,2.4,45.7-44.8,96.5c-1.9,2.2-4.1,4.1-6.7,5.5c-0.5,1-1.4,0.2-1.9,0.5
		c0,0.2-0.2,0.5-0.2,1c-1.9-1-1,0.2-3.4-3.9l0.7-1.4c-0.5-1-1-1.9-2.2-2.2c-0.2-0.2-0.7-0.2-0.7-0.5c0-2.6-2.6-5-5.3-7.5
		c0.2-0.5,0.2-1.2,0.5-1.9c0.5,0.2,1.2,0.2,1.4,0.5c0.5,2.9,1.2,1.4,1.7,2.4c0,1,0,1,1,0.7v-1.7c-0.5-0.2-1-0.7-1.4-1.2
		c0.2-0.2,0.5-0.5,0.7-0.7l2.4,2.2c-1,0.7-0.5,1.4,0.2,2.2c0.2-0.5,0.7-1,1-1.2c1.9,0.5,2.6,2.7,4.3,3.6c0.5-1.4-4.8-6.3-5.8-7.2
		c-3.1-2.2-5.8-9.4-7.7-8.4c-3.6-5,0-0.2-5.3-10.6c-1.4-3.4-7.7-5.5-4.1-21.2c5.3,1,6,10.1,14.9,14c1.2-0.7,0.7-0.5,2.4-1.2
		c0-2.2,0-2.2,1-4.1c-8.4-16.1-16.6-21.2-32.2-10.1c0.2,0.7,0.7,1,0.7,1.4c0,5.1-2.6,7.5-1.7,3.6c0.2-0.5,0-1-0.5-1.2
		c-1,1-0.7,9.6-0.5,11.1c0.7,0,1.2-0.2,1.7-0.2c2.2,0.7,0.5-1,1.9-1.4c0,1.2,1.7,5.8,0.2,7.2c-0.7-0.5-1.2-1-1.7-1.4l0.5-0.5
		c-0.5-0.2-0.7-0.5-1.2-0.5c-0.2-0.2-0.5-1-1-0.7c-0.5,1.2,0.2,8.2,1.4,9.6c0.7-0.5,1.7-0.7,2.4-1.2c1,1.7,1,1.7,0.2,2.9l-1-0.2
		c-1,2.4,1.4,7.2,2.4,7.7l1.2-0.7c-0.7-1.4-1.4-2.9-1.7-4.6c1-0.5,2.9,0.2,2.2,3.4c1.4,0.7,3.1,0,2.2,2.6c0.1,0.3,0.5,0.9,1,1.7
		c-5.4,2.9-12.3,12.8-12.3,13c-7,2.9-9.1,11.1-17.3,15.6c-1.4,1-2.9,2.2-3.9,3.9c-3.4,0.7-1.4,1.4-3.1,2.2
		c-4.6,1.9-14,9.4-21.2,11.1c-5.3,1-6.3,1.4-7.7,0.7c-0.2-0.2-2.6-1.2-3.6-2.4c-1.9-3.1-4.6-6.3-5.5-10.1l-0.7-1.4
		c-0.5-0.7-1.4-3.1-0.7-4.8c-0.7-0.2-1.2-0.5-1.4-1.2c-1.2-6.3-4.3-14.4-4.8-20c1.5-1,2.2-2.2,1.7-3.9c0-1,1.9-2.9,1.7-2.6
		c5.5-5.8,8.9-9.9,8.9-9.9c26.9-22.4,75.3-92.4,64.5-135.2c-1.2-4.8-1.2-3.8-3.4-6.7c-4.8-6.5-6.3-10.8-14.4-13.2
		c-2.4-0.7-6.3-0.2-7.9,0c-5.5,0.5-4.8,1.9-7,2.2c-3.9,0.7-7,2.6-9.6,5c-3.4,3.1-10.3,6.7-13,8.7c-12.9,12.9-14.9,14.1-18.2,19.4
		c-3.9-5.6-8.3-10.1-14.1-8.4c0-2.6-3.6-0.7-6.3-3.9c-0.7,0.5-1.7,0.2-2.2,1l0.7,1c-0.5,0.7-1,0-1.7,0.5c-1.2,1.4-1.2-0.2-3.6-1.7
		c-2.4-1.4-1.7,0.2-4.3-0.7c-4.1-1.4-1.9-0.7-8.2-0.7l-1.2-1.4c-1.2,0.2-0.5,0.2-2.6-0.2l-1.7,1l-1.4-0.2c-0.5,1-1.4,0.5-2.4,0.2v1
		c-5.5-0.2-7-1.2-5.8,0.2l-1.9,0.5c-1,4.1-5.5,1-10.3,1.2l0.2,1.2c-3.4,0.7-5.8,0.7-5.8,0.7c-0.2-1-3.1-1.4-3.6,0.2
		c-0.2,0.5-1,0.5-1.4,0c-0.2-0.2-0.5-0.5-0.7-0.5c-2.9-0.2-2.4-0.2-2.9,0.5c1,0.7,1,0.7,0.7,2.4c-1.2-0.2-1.9-1-2.6-2.2
		c-1,0.7-2.2-0.5-2.9,1l1.2,0.5l-1.2,0.7c-1.9-1-2.2-1.2-4.6-1c0.5,3.1,1.9,0.7,3.1,1.7c-0.7,2.2-6-0.2-7-0.5
		c-3.1-1-1.4,1.4-5.3,1.7c-2.9,0.2-1.7,1.7-4.8,0c-0.5,1.2-2.2,0.7-2.9,1.9l0.5,1c-6.5,2.4,0-1-7.7,0.7c1-2.2,1.9-0.5,4.8-2.4
		c-0.7-0.2-0.5,0-5.5,0.5l-0.5,2.6c-2.9,0.2-0.7,0.2-1.9,1.2c-1.4-1.7-2.9,0.2-5.3,0.5c0,0-1.7-0.7-7-0.2v0.2c0.5,0.7,1.4-0.2,1.9,1
		l-5-0.5c-1.5,0.2-2.6,0.2-3.9-0.2c-1,1.4-2.6,0-3.9,0.5c0.2,1.4-0.7,0.5-1.4,1.7l0.2,1l-1,1c-1,1-2.2,1.2-3.4,0.2
		c-0.2-0.2-0.5-0.7-0.7-0.5c-1.4,0.5-3.1-0.2-4.6,0.2c-0.5,0.2-1.2-0.2-1.4,0.5c-0.2,0.7-1.4,0.7-1.4,1.4c1.4,0.7,2.6-1,4.3-0.2
		c-8.2,2.9-7,2.6-7.5,2.4c-0.2-1,1.2-0.7,1-1.7c-0.2,0-0.5-0.2-1,0c-1,0.2,0.2,0.5-3.8,0.5c-1,0-1.9,0-2.6,0.7
		c-0.7,0.5-0.5,1.5-1.5,1.2c-1.2,0-1.9,1-2.9,1.2c-1.2-0.5-1.9-1.2-2.9-0.2c-0.2,0.5-0.2,1,0.2,1.2c1,0.2,0.5,1,0.7,1.7
		c-3.6-0.2-2.4,0.2-5.1-1.9c-1.7,2.2-0.7,1.2-3.4,2.9c-1-1.7-3.4,1.2-4.6-0.2c-1.9,0.2-3.8,0.2-3.4,1.2l1.2-0.2c0,0.5,0,0.7-0.5,1
		c-0.5,0-3.4,0.5-3.1,1c0.5,1,1.4,0,1.2,1.2l-9.4,0.2l0.7,0.7c-2.2,0-5.8,1-6.3,1.2l-0.2,1c-1.7-0.2-12.6,1.7-11.9,3.3
		c-2.8-6.3,13.8-38.3,14.5-40.2c0.7-1.9,2.5-2.5,2.5-2.5c19.8,1.9,40.2-18.5,52.1-34.2c28.2-37.1,30.4-88.8,31.6-133.4l-0.5-6.6
		c-0.2-1.9-2-3.5-3.5-4.7c-1.7-1.2-4.1-1.4-6-1.4c-1.7-0.2-3.4-0.2-5.1,0.2c-4.1,1.7-3.1,9.6-3.8,13.5c-1,5.3-1.7,10.8-2.4,16.4
		c-1.4,10.8-2.6,21.7-4.8,32.2c-6.3,30.6-20.9,59.7-44.3,80.1c-2.6,2.2-6.3,4.3-9.1,2.4c-1.4-1.4-1.9-3.6-1.9-5.8
		c-2.6-29.8-2.4-60.1,1-90c1.7-15.9,4.3-31.5,5.3-47.4c0.5-6.3,0-12-0.5-18.3c-0.5-5.5,1.7-12.5-3.8-16.4c-2.2-1.7-5.1-1.9-7.9-1.9
		c-3.1-0.2-6.3-0.5-9.4-0.7c-1,0-1.9-0.2-2.9,0.2c-2.4,0.7-2.2,5.1-2.4,7c-0.5,4.1-0.7,8.2-1.2,12.3c-4.8,45-11.1,90-10.3,135.2
		c0.2,15.4,1.4,31,7.5,45c0.4,1,0.9,2,1.4,2.9c0.3,1,0.8,1.9,1.5,2.8c1.6,2.7,3.4,5.2,5.7,7c0.4,0.3,0.8,0.6,1.1,0.9
		c-7,10.1-18.8,39.3-23.9,46.6c-14.4,0-50.2,22.1-68.5,7.9c6.7-5.4,10.2-13.6,10.6-22.3c0.3-8.2-8.1-11.4-15.2-10.6
		c-9.4,1-13.6,6.5-13.8,15.5c-0.2,7.3,1.7,15.5,6.9,20.9c-17.4,15.9-44.3,26.4-43.4,45.4c0.5,10.8,5.2,20,9.7,16.1
		c0.3-0.2,0.8,0.2,1.3-0.2c-0.2-0.2-3.8-11.4-3.6-12c1.1-9.3,2.4-11.6,2.4-11.6c0-0.8,2.9-2.7,2.7-3.8c11.9-12,12.8-12.5,12.8-12.5
		c1.7-0.2,7.1,5.9,7.8,6.7c9.4,10.6,6.8,21.5,7.4,23.7c-4.6,30.4-33.3,41.3-50,26.9c-1.3-1.3-2.5-2.7-4.3-3.3
		c0.5-6-24.2-25.8,7.8-57.5c0.5-0.5,0.6-0.8,1.1-1.3c1.3,0.3,7.3-3,1.5-5.9c-5.1-2.5-12.2-8.1-13.9-12.2c-0.3,0-0.6-0.2-1-0.3
		c0.6-2.1-1.6-3.8-1.9-7.8c-0.9-10,2.2-13.5,2.2-15.8c11.2-28.7,32.5-18.1,33.1-3.8c0.5,10.8,4.6,7.9,6.5,7.1v-2.1
		c0.6-0.8,0.9,1.3,3.3-4.4c-0.6-15.8-25.7-23.4-38.3-14.9c-15.8,10.8-18.7,34.5-16.1,34.4c1.1-2.8-0.5-4,1.3-4.9
		c-0.5,4,1.6,2.2,1.1,1.3c0-0.3-0.3-0.5-0.2-0.8c0.2,0,0.5-0.2,0.8-0.2c0,0.6,0.2,1.1,0.2,1.6l0.8,0.3c0.3,4.9,3.5,18.4,4.3,18.2
		c1.6-0.2,2.4,3.8,4.7,5.9c2.1,1.9,2.4,1.9,1.9,2.2c-2.1-1.6-4.3-3.3-5.9-5.5c-2.7-3.6-2.2-4.1-3.2-3.9l4.4,7.3
		c-9.2,9.8-11.2,14.9-13,18.1l1.1-0.3l-1.9,5.9l0.9-1c-0.2-0.9,0.5-1.6,0.8-2.2c0.9,0.8,0.5,0.9-0.8,2.2c0.2,1.1-1.1,4.8-1.9,5.2
		c0-0.5,0.2-0.8,0.2-1.1c-0.5,0.5-1.1,0.8-1.4,0.8c-0.3,0.9-0.9,1.9-0.6,3c0.2,0.3,0.5,0.5,0.6,0.8c0.3-0.3,0.5-0.5,0.9-0.8
		c-0.3,2.7-0.2,2.4-0.6,2.8c-1.1,1,0,1.3-0.2,3.8c-0.2,1,0.6,1,1.4,1.3c0.3-0.6,0.5-0.6,0.3-1.1c0-0.3,0-0.8,0.3-1
		c-0.2-2.5,0.6-5.9,1.1-6.5c0,2.2-0.5,4.3-1.1,6.5c0.9,12.8-1.6-2.5,1.4,16.2c-1.6-0.3-1.6-1.6-1.7-2.8c0.3,0,0.5-0.2,0.8-0.2
		c0-0.3-0.2-0.5-0.3-0.6l-1.3,0.3c3.8,10.9,4.7,10.3,3.6,11.4c0.6-0.5,1.3,0.6,0.5,0.9c-0.6-1.3-0.8-1.7-1.4-1.6
		c8.1,20,33.1,23.8,41.6,20.3l6.5-2.1c3.2-0.9,21.5-13.6,23.4-20.6c0,0,8.1-23.1,7.1-28.7c-0.2-1-0.2-1.7,0.3-2.5
		c-0.3-0.3-0.6-0.6-0.5-1.3c1.9-6.5-15.5-20-16.2-21.2c2.1-2.3,0.9-0.9,2.5-2.4l0.4-0.3l0.2-0.1l0,0l1.7-1.3c0.3-0.3,6.8-4.8,12.5-9
		c0.8,0.7,1.8,1.4,3.4,2.4c19.2,12.3,53.4-4.1,65.4-4.1c0,0-3.3,6.7-16.8,56.1c-29.4,108.3,20.2,117.2,27,98.9c-0.1,0-0.2,0-0.2,0h0
		c-2.2-0.2-2.9,2.6-3.6,1.2c3.6-4.3,3.1-2.6,4.3-6.3c1-2.4,2.9-1.9,4.6-4.8c2.2-3.1,3.4-2.4,4.3-3.4l0.2-2.6
		c4.6-4.3,14.4-17.6,22.9-32c0.5,1,0.9,1.6,0.9,1.7c1,0.2,1.9,0.7,2.6,1.7c1.9,2.4,11.8,5.3,17.1,1.2c4.1-2.9,4.8-2.2,7-4.6
		c1.2-1.7,1.7-2.2,5.8-5.1c4.1-3.1,4.8-7.7,4.8-7.5c0.7-2.4,6.7-14.7,7.5-14.7l-6.7,29.1c1,4.8-1,5.8-1,8.4c0,2.9-0.7,3.8,0.7,4.1
		c2.5-0.7-0.1-1.3,2.1-3.1c0.1,5.4,0.4,10.8,0.6,16.1c0.1,3.4,0.4,7,1.4,10.2c-0.4-0.1-0.9-0.2-1.6-0.6c1-2.4-1.2-3.1-1.4-6.3
		c-0.7-6.5-0.5-5-1.2-6c-0.5,1.7,0.2,3.1,0.2,4.6l-0.5,4.6c1.7,1.7,1,2.7,2.4,5.1c8.2,14.9,19.2,7,20.5,6.7c1.4-0.5,5.3-1.9,5.3-3.9
		c0-1,1.9-1,1.7-2.9l0.5-0.5c2.2-0.7,6.7-13.5,12.3-21.4c1.2-1.9,2.2-3.9,3.1-5.8c-0.2-0.2-0.7-0.2-0.5-0.7h0.7v0.2
		c1.7-1.9,1.5-0.7,1.7-4.1c0.7,0,1.7,0,2.2-0.7c8.4-12.3,7.7-10.8,7.7-10.8c1.4-1,6.7-8.7,6.5-8.4c0.7-0.7,1.7-0.5,3.4-3.6
		c0.7-1.1,1.4-1.8,2-2.6c1.5,11.7,2.6,21.5,10.1,31c4.1,5,4.3,5.5,6.7,6.5c5,2.4,6.7,4.1,11.8,2.6c5.8-1.7,8.4-2.4,12.3-5.3
		c4.1-3.1,1.7,0.2,8.9-6.3c4.3-3.9,13.2-11.3,15.4-15.4c0.4-0.6,0.8-1.2,1.3-1.7c2.6,15.3,2.8,11.3,4.2,15
		c7.2,17.8,7.2,18.5,7.2,18.5c10.6,19.5,26.9,20.7,25.3,20.2c1.4-1.2,2.9-1.4,4.3-1.7c6-0.2,27.4-8.4,28.6-12.3l1-0.5
		c0.7,0,1.5-0.2,1.9-1.5c-1,0.2-1.7,0.5-2.2,1.2l-1,0.5c-4.6,0.5-9.4,5.1-13.7,5.3c-1,0.5-1.4,1.4-2.4,1.7c-1,0.2-7.7,2.9-11.5,1.4
		c11.1-1,15.7-5.5,15.9-5.8c0,0,2.6-0.5,10.1-4.1l1.2-3.4c0.2-2.9,4.6-3.1,4.8-3.1c0.7-0.7,1-1.7,2.2-1.9l-0.7,1.4
		c3.4,1.4,3.1-2.6,1-1.7c0-0.2-0.2-1,0.5-1.2l1.9,1c9.4-5.3,9.9-10.1,13.7-12.5c0,0.7,0.2,1.2,0,1.4c-1.9,3.1-15.2,16.6-15.2,16.6
		c2.4-0.5,26.5-24.8,31.5-34.4c0,0,0-0.1,0-0.1c0.2,0.1,0.3,0.2,0.5,0.3c-0.1-0.2-0.2-0.4-0.4-0.6c0.2-0.5,0.4-0.9,0.6-1.4
		c4.9,6.7,11.1,14.6,12.8,15c-0.7,1.7,0.5,2.6-1,2.6c-0.7-1.2-9.6-13.5-11.8-15.2c0,1.7,9.6,15.2,11.1,16.1c-0.2,0.5-0.2,1-0.5,1.7
		c-1,0.5-25,14.7-25,16.6c-27.2,33.7-2.9,46,5.3,44.5c8.2-1.4,13.2,3.1,22.9-8.9c10.8-13.5,5.5-1.2,13.9-18
		c12-23.8,1.7-36.8,2.6-40.4c24.5-21.9,34.4-36.6,43.8-56.8C600.9,402.5,606.9,355.9,593.4,361.9 M502.7,419.9c0-1.2,0-2.4-0.2-3.6
		c-0.5-0.7,0-1.4,0.5-1.9c0.5,1,0.5,1-0.5,1.9c0.2,0.2,1,0.2,1,0.5C503.2,420.1,503.2,419.6,502.7,419.9 M506.3,407.8
		c-0.2-0.2-0.5-0.2-0.5-0.2c0.7-1,0.5-0.7,1-0.2C506.6,407.3,506.6,407.6,506.3,407.8 M506.3,431.2c-0.5,0-1-0.2-1.4-0.2
		c1-1.2,0.7-0.7,1-1.7c0.5,0.2,0.7,0.2,1.4,0.5C506.8,430.2,506.6,430.7,506.3,431.2 M509.9,412.2c0.2-0.5,0-0.5,0.5-0.2
		C510.2,412.4,510.2,412.2,509.9,412.2 M45.8,381.7c0.8,0.2,1,1.3-1.1,1.4C45.2,382.6,45.5,382.2,45.8,381.7 M45,421
		c-0.9-0.5-1.3,0-0.8-1.4C44.3,419.7,45,420.8,45,421l0.5,1.4C44.7,422.5,44.1,422.1,45,421 M44.1,393.4c0.2-0.9,0.3-1.4,0.6-1.9
		C45,392.1,44.6,392.6,44.1,393.4 M45.4,389.9l-0.5-0.6c-0.2,0.2-0.3,0.3-0.6,0.5c-0.5-2.2,1.9-4.4,2.1-6.5c0.6,0.2,0.9,0.2,1.4,0.3
		C47.7,384.4,46,389.1,45.4,389.9 M48.1,431.7c-0.9-0.6-1.9-2.2-2.4-3.6c1.6,0,0.2,1.7,2.4,2.5V431.7z M76.4,442.5
		c0.3,0.2,0.6,0.5,1.3,0.8c-5.4,0-13.6-3.2-14.9-5.5c1.9-0.3,7.3,3.5,9.2,3.2l-1-1c2.2,0.2,5.9,1.4,7.1,2.2
		C77.7,443.1,77,441.2,76.4,442.5 M125.3,346.6c-1.9-3.2-2.9-6.9-3.5-10.7c-0.7-4.3-1.3-10.6,1.4-14.2c1.2-1.6,4.8,0.7,6.1,1.6
		c2.2,1.6,2.3,4,2.3,6.5C131.6,335.4,129.3,342.1,125.3,346.6 M203.4,498.6c-0.5,0.2-1,0.5-1.2-0.2c0-0.7,0.2-1.4,1.2-1.7
		c0-0.7,0-1.4,1-1.4c0.5,0,0.5,0.5,0.5,1l1-0.2C205.1,496.9,204.1,498.1,203.4,498.6 M206.8,494.7c0-1.2,0.7-1.4,1.2-1.7
		C207.7,493.8,207.7,493.8,206.8,494.7 M211.1,491.8h-1.9c0-1,1.9-4.6,3.4-3.9C214,489.2,213,489.4,211.1,491.8 M236.6,424.9
		l-0.2-0.2c-0.2-1.2,0-2.6,1.2-2.6C237.3,424.9,237.3,424.9,236.6,424.9 M412.1,435.2c-0.2-4.6,0.1-9.7,0.4-12
		c0.7-16.6,0.5-16.4,1.7-16.4c-1.9,30.5,0,20.5,0,20.5c0.7-2.4,1-0.2,1.5-3.6v-1.9c3.4,0.5,1,2.2,2.2,4.3c0.4,1.1-1.6,1-2.1,3.8
		c-0.1,0.2-0.2,0.3-0.3,0.5l-2.2-0.2v2.4c0.2,0.1,0.4,0.1,0.6,0.2C413.2,433.6,412.7,434.4,412.1,435.2 M415.6,418l0.5-0.7l0.5,0.5
		l-0.7,0.7L415.6,418z M414.9,453.1c-0.5-0.7-0.2-1.2,0-1.9c0-1.4,0-2.9,1-3.9c-0.2,0-0.3,0-0.4,0c0.2-0.2,0.3-0.5,0.5-0.7l-0.1,0.8
		c1.2,0.2,0.7-0.2,1.4,1.7l-1.4,0.2c-0.7,0.5,0,1.7-1,1.9C415.6,452.1,415.6,452.1,414.9,453.1 M419.2,473.1c-1-1.2-3.4-7-3.4-9.6
		c1.7-1,1-0.5,1.9-1.7c0.2,1,1,1.4,0.5,2.4c1,1.4-0.5,2.6,0.2,3.6C419.9,469.5,419.9,473.8,419.2,473.1 M419.7,474.7
		c1,0,1,0,1.2,1.4C419.9,475.9,419.9,475.2,419.7,474.7 M421.4,335.4c-20.2,62.5-7.7,35.4-13.7,58.7c-2.2,8.2,0.5,9.4-0.7,17.3
		c0,1.2-1.2,18.5,0,22.1c0,0.2,0.1,5.3,0.3,8.4c-1.5,2.1-3.2,4.4-5.1,7c-4.6,6.3-15.9,16.8-15.6,16.6c-4.1,3.9-2.6,3.4-8.7,5.1
		c-0.7,0-2.6,0.7-4.3-0.7c-10.8-8.4-4.3-5.5-8.7-15.2c0-0.5-0.2-1-0.2-1.4c-5.3-48.8,16.4-58.5-2.6-61.8c-3.4-0.5-7.9-0.2-9.1,3.1
		c-2.4,6.5-3.6,2.6-8.4,27.2c0,0.2-0.1,0.4-0.1,0.5c-10.6,9.4-25.9,28-27.1,29.5l-13.5,20.5c-0.5,1.4-4.8,7.5-4.6,7.2
		c-5.1,9.1-4.6,8.7-5.5,8.7c-6.3-14,15.4-75.8,14.7-81.3c-0.7-3.4,0.5-2.9,0.5-4.8c0-3.4,1.4-4.1-0.5-4.8c-3.8-1.2-9.6-1.7-12.3,0.5
		c-2.9,2.6-4.6,3.9-4.8,5.8c-0.2,2.6-2.9,3.1-6.7,8.9c-12.5,18.5-5.3,10.1-19.2,30.6c-4.8,7.7-7,12.8-13,9.1
		c-3.4-2.2-1.7-3.8-2.2-7.2c-0.7-3.1-0.7-7.7,0.7-15.2c1-4.1,0.5-8.4,2.2-12l0.7-1.7c7.2-25.3,18.1-34.4,18.1-34.2
		c3.1-3.6,10.3-7.2,10.1-7.2c1.4-0.7,8.2,2.2,9.6,2.9c2.6,1.2,3.1,4.8,4.8,13.2c1.2,4.6,6,0.2,6.3,0c0-3.9-0.5-4.8,0.5-6.5
		c3.1-5.3-5.8-18.3-5.1-16.8c-1.2-1.9-3.4-2.2-5.8-3.9c-14.9-9.9-47.4,13.5-59,52.7c-5,16.6-3.9,15.4-3.4,21.2l3.1-1
		c2.4-5.5,1.7-9.1,2.9-8.4c-0.2,2-0.3,3.8-0.5,5.5c-1.1,2.3-2.4,4.7-3.7,7.3c0.1-1,0.1-2.1-0.2-3.1c-2.6,1.7-0.5,4.6-1.2,5.3
		c-0.3,0.4-0.5,1-0.5,1.5c-12.2,23.5-29.4,52.8-38.9,54.8l-0.5-10.1c-0.7-1.7-1-5.5-1.4-6.3l-1.2,1c-0.7-5.3-2.9-11.3-1.2-11.1
		c0.7,1.9,1.2,4.1,1.4,6.5c0.5-1.2,0.2-0.7,1.2-1.9l-1-1.9c0.7-4.1,1.2-2.6-0.7-5.5c0.2-1.5,1.2-8.2,0.5-9.1l-0.5-1.2
		c0-0.2,1.2-10.1,1.4-10.1c1.9-5.3,0.7-5.8,1.2-12.3c-5-7,5.1-45.4,14.5-67.3c3.9-8.9,4.3-8.2,7.2-12.8c3.6-6,2.6-4.8,4.3-5.8
		l6.3-2.9c0.7-0.2,3.4-0.5,3.6-1c0.7-0.7,5.1-1.7,6.7-2.6c2.4-1.2,3.9-0.7,5-1.2c1-0.2,1.7-1,2.6-1.2c9.6-3.4,6.3-1.7,9.9-2.6
		c9.4-2.9,10.1-2.9,11.3-3.8c1.2-0.7,3.8-0.7,5-1.2c20.7-6.3,17.3-5.3,23.8-6.7l6.5-1.7c2.7-1.2,3.1-0.2,4.3-0.5
		c1-0.2,52-14.9,57.7-12c3.4-1.2,0.2-0.7,10.8-2.2c0.7,0.5,1,1.2,1.7,1c2.4-1.4,2.4-1.2,5.1-1.2c1,0.2,2.2,0.7,3.1,0
		c0-0.2,0.5-0.2,0.7-0.2c1.9,1,10.1-0.2,13.2,0c1.2,0.2,7,1,7.7,2.2c0,0.2,0.5,0.2,0.7,0c1,0.5,3.1,2.4,9.6,1.9l0.5,1.9
		c3.8-0.5,8.7,4.8,13.6,9.9C423.7,330.8,421.7,334.3,421.4,335.4 M429.3,436.2c-1.9,0-1-4.1-1-9.4c0,0,0-0.1,0-0.2
		c0.5-1,0.9-2,1.3-2.8c0,0.1,0,0.2,0.1,0.4c0.2,0.5-0.2,1.7-0.2,2.2c0.7,1.5,0.2,2.9-0.2,4.3l0.2,0.5l1,0.5l-0.5,1.9l1.2,0.2
		c0-0.2,0-9.1-0.3-13.9c0-0.2,0.1-0.4,0.1-0.5c0-0.5-0.1-0.9-0.2-1.3c-0.1-0.5-0.1-0.9-0.2-1.1c-0.1,0.1-0.2,0.2-0.3,0.2
		c-0.3-0.4-0.8-0.8-1.2-1.1c0.1-2,0.3-3.7,0.3-4.4c0-1-1-6-1-5.8c-0.2-0.2-0.5,0.5-1.2,0.5c-0.2-1.7,1-2.6,0.7-3.4
		c-0.5-1.4-0.2-3.1-1-4.6c-0.5-0.7-0.5-1.4-0.2-1.9c1.4-2.6-0.5-2.4,1.4-10.6c3.6-17.1,3.6-23.8,3.6-24.1
		c-0.4-4.1,4.5-16.8,9.9-28.6c0.5-0.7,0.9-1.7,1.3-2.8l0.6-1.5c3.7-7.9,7.3-14.8,9.1-17.4c9.1-13.5,36.6-31.8,43.8-17.3
		C519.5,341.2,427.6,438.9,429.3,436.2 M430,422.9c0.2-0.4,0.3-0.8,0.4-1.2C430.8,422.3,430.4,422.6,430,422.9 M514.8,440.1
		c0-0.2-0.2-0.7-0.2-1h0.5c0,0.2,0,0.5,0.2,0.7C515,439.8,515,439.8,514.8,440.1 M515.5,441.8c0.5,0,0.5,0,1,0.2
		C516,442.2,516.2,442.5,515.5,441.8 M516,403c0.5-0.2,0.2-0.2,0.7,0C516.2,403.3,516.4,403.3,516,403 M520,449.7
		c-0.4-0.1-0.9-0.4-1.3-0.6c0-1.2-0.3-2.3-0.8-3.2c0-0.1,0-0.3-0.1-0.5C520.8,448.3,521,448,520,449.7 M523.4,451.6
		c-0.2,0.2-0.5,0.5-1,0.7c-1-0.2-0.5-1.5-1.4-1.7C522.4,450.2,522.2,451.9,523.4,451.6c1,1,1.7,1.9,1.9,3.1
		C524.1,455.5,522.4,454.7,523.4,451.6 M525.8,449.7c-1-0.2-1.7-0.5-1.9-1.9C525.1,448,525.1,449.2,525.8,449.7l1.2,1.2
		C525.8,450.9,525.8,450.9,525.8,449.7 M527,458.1c1-0.2,1-0.2,1,1.2C527.3,459.1,527,458.8,527,458.1 M528.5,453.5
		c0.7,0,0.5-0.2,1.4,1C528.5,454,528.7,454.3,528.5,453.5 M503.4,518.5c0.5-14.4,15.6-28.9,27.7-36.6
		C534,516.8,503,530.5,503.4,518.5 M532.8,463.9c0.7,0.7,1.7,1,1.7,2.4C532.8,465.6,532.8,465.6,532.8,463.9 M544.1,473.3
		c-0.2,0.7-0.2,1.7-0.2,2.6c-3.9-2.9,0-5.5,1-6.3l1.2,4.1C545.3,473.5,544.6,473.3,544.1,473.3 M578.5,430.9c0-0.5,0-1,0.7-1.2
		C579.5,430.4,579,430.7,578.5,430.9"/>
</g>
</svg>
