<?xml version="1.0" encoding="utf-8"?>
<!-- Generator: Adobe Illustrator 19.2.1, SVG Export Plug-In . SVG Version: 6.00 Build 0)  -->
<svg version="1.1" id="layer" xmlns="http://www.w3.org/2000/svg" xmlns:xlink="http://www.w3.org/1999/xlink" x="0px" y="0px"
	 viewBox="0 0 652 652" style="enable-background:new 0 0 652 652;" xml:space="preserve">
<style type="text/css">
	.st0{fill:#46635A;}
	.st1{fill:#649691;}
</style>
<path class="st0" d="M96.4,221.7l-6.9,19.1c-0.3,1-1,2.1-2.1,2.1c-1,0-3.9-1.8-8.5-1.8c-10.5,0-18.3,8-18.3,18.5v9.8
	c0,1.8,0.8,2.6,2.6,2.6H80c1.8,0,2.6,0.8,2.6,2.6v21.9c0,1.8-0.8,2.6-2.6,2.6H63.3c-1.8,0-2.6,0.8-2.6,2.6v74.7
	c0,1.8-0.8,2.6-2.6,2.6H33.7c-1.8,0-2.6-0.8-2.6-2.6v-74.7c0-1.8-0.8-2.6-2.6-2.6h-5.9c-1.8,0-2.6-0.8-2.6-2.6v-21.9
	c0-1.8,0.8-2.6,2.6-2.6h5.9c1.8,0,2.6-0.8,2.6-2.6v-7.2c0-26.3,21.6-48.2,47.9-48.2c5.4,0,12.1,0.8,16.5,1.8c1.3,0.3,2,1,2,2
	C97.5,218.9,97,220.4,96.4,221.7"/>
<path class="st0" d="M134.9,381.3c-29.3,0-48.1-18.8-48.1-45.6v-31.9c0-26.8,18.8-45.6,48.1-45.6c29.1,0,47.9,18.8,47.9,45.6v31.9
	C182.8,362.5,164,381.3,134.9,381.3 M153.2,303.8c0-10.3-8-18.5-18.3-18.5c-10.5,0-18.5,8.5-18.5,18.5v31.9c0,10.1,8,18.5,18.5,18.5
	c10.3,0,18.3-8.2,18.3-18.5V303.8z"/>
<path class="st0" d="M239.1,381.3c-29.3,0-48.1-18.8-48.1-45.6v-31.9c0-26.8,18.8-45.6,48.1-45.6c29.1,0,47.9,18.8,47.9,45.6v31.9
	C287,362.5,268.2,381.3,239.1,381.3 M257.4,303.8c0-10.3-8-18.5-18.3-18.5c-10.5,0-18.5,8.5-18.5,18.5v31.9c0,10.1,8,18.5,18.5,18.5
	c10.3,0,18.3-8.2,18.3-18.5V303.8z"/>
<path class="st0" d="M388.6,378.8h-21.9c-1.8,0-2.6-0.5-2.6-2.3s-0.8-2.8-2-2.8c-0.5,0-1,0.3-1.8,0.5c-5.4,2.8-12.1,4.6-17,4.6
	c-29.3,0-48.1-18.8-48.1-45.6v-27c0-26.8,20.3-45.3,45.5-45.3c5.1,0,11.6,1.8,17,4.6c0.8,0.3,1,0.5,1.8,0.5c1.3,0,2.1-1,2.1-2.8v-44
	c0-1.8,0.8-2.6,2.6-2.6h24.4c1.8,0,2.6,0.8,2.6,2.6v157.1C391.2,378,390.4,378.8,388.6,378.8 M361.6,306.1c0-10.3-8-18.3-18.3-18.3
	c-10.5,0-18.5,8-18.5,18.3v27c0,10.6,8,18.5,18.5,18.5c10.3,0,18.3-8,18.3-18.5V306.1z"/>
<path class="st1" d="M489,323.7h-65.6c-1.8,0-2.6,0.8-2.6,2.6v12.1c0,13.6,11.3,25.2,25.2,25.2c8.7,0,17.5-5.1,22.9-14.7
	c0.8-1.3,2.1-1.8,3.3-1l13.6,7c1.5,0.8,1.8,1.8,1,3.4c-2.3,4.1-4.9,8.2-8.5,11.6c-7,7-17,11.6-32.4,11.6c-27.8,0-45.5-17.5-45.5-43
	v-34.2c0-24.5,17.7-42.7,45.5-42.7c27.3,0,45.5,18,45.5,42.7v17C491.6,322.9,490.9,323.7,489,323.7 M471.3,302.8
	c0-13.1-10.5-23.9-25.2-23.9c-16,0-25.2,11.3-25.2,25.2v2.8c0,1.3,1.3,1.5,2.6,1.5h45.3c1.8,0,2.6-0.8,2.6-2.6V302.8z"/>
<g>
	<path class="st1" d="M617.4,429h-17.7c-0.8,0-1.8-0.5-2.3-1.3l-56.2-89.7c-1.3-2.1-3.1-2.1-4.4,0l-24.2,39.4
		c-0.5,0.8-1.5,1.3-2.3,1.3h-16.5c-2.6,0-3.3-1.8-2-3.9l34.2-52.5c0.5-0.8,0.5-2.3,0-3.1l-34-51.5c-1.3-2.1-0.5-3.9,2.1-3.9h17.5
		c0.8,0,1.5,0.5,2,1.3l24.2,39.4c1.3,1.8,2.8,1.8,4.1,0l24.7-39.4c0.5-0.8,1.3-1.3,2.1-1.3h16.5c2.6,0,3.3,1.8,2,3.9l-34,51.7
		c-0.5,0.8-0.5,1.8,0,2.6l66.2,103C620.7,427.2,619.9,429,617.4,429"/>
</g>
</svg>
