<?xml version="1.0" encoding="utf-8"?>
<!-- Generator: Adobe Illustrator 19.2.1, SVG Export Plug-In . SVG Version: 6.00 Build 0)  -->
<svg version="1.1" id="layer" xmlns="http://www.w3.org/2000/svg" xmlns:xlink="http://www.w3.org/1999/xlink" x="0px" y="0px"
	 viewBox="0 0 652 652" style="enable-background:new 0 0 652 652;" xml:space="preserve">
<style type="text/css">
	.st0{fill:#2975CD;}
	.st1{fill:#3D444F;}
</style>
<g id="Logo---Color">
	<g id="ShipBob-Logo-Color">
		<path id="Fill-1" class="st0" d="M167.2,281C167.2,281,167.2,280.9,167.2,281C167.1,280.9,167.1,280.9,167.2,281
			c-0.2-0.3-0.4-0.6-0.6-0.9c-0.1-0.1-0.1-0.1-0.2-0.2c-0.2-0.2-0.3-0.4-0.5-0.6c-0.1-0.1-0.2-0.2-0.3-0.3c-0.1-0.1-0.3-0.3-0.4-0.4
			c-0.1-0.1-0.3-0.2-0.4-0.4c-0.1-0.1-0.2-0.2-0.4-0.3c-0.2-0.1-0.3-0.2-0.5-0.3c-0.1-0.1-0.2-0.2-0.4-0.2c-0.2-0.1-0.3-0.2-0.5-0.3
			c-0.1-0.1-0.3-0.1-0.4-0.2c-0.2-0.1-0.4-0.2-0.6-0.3c-0.1-0.1-0.3-0.1-0.4-0.2c-0.2-0.1-0.4-0.2-0.6-0.2c-0.1,0-0.2-0.1-0.4-0.1
			c-0.2-0.1-0.5-0.1-0.7-0.2c-0.1,0-0.2,0-0.3-0.1c-0.3-0.1-0.6-0.1-0.9-0.1c0,0-0.1,0-0.1,0c-2.2-0.2-4.5,0.2-6.5,1.4l-57.5,32.4
			l-41.1-23.2l41.1-23.2l27.4,15.5c5.2,2.9,11.9,1.2,14.9-3.9c3-5.1,1.2-11.6-4-14.5l-32.9-18.5c-3.4-1.9-7.5-1.9-10.9,0l-62.7,35.3
			c-1.7,0.9-3.2,2.3-4.3,4c-3,5.1-1.2,11.6,4,14.5L89.3,331c0,0,0,0,0,0c0.3,0.2,0.7,0.3,1,0.5c0.1,0,0.2,0.1,0.3,0.1
			c0.2,0.1,0.4,0.1,0.6,0.2c1.1,0.4,2.3,0.6,3.5,0.6c0,0,0,0,0,0c0,0,0,0,0,0c1.2,0,2.4-0.2,3.5-0.6c0.2-0.1,0.4-0.1,0.6-0.2
			c0.1,0,0.2-0.1,0.3-0.2c0.3-0.1,0.7-0.3,1-0.5c0,0,0,0,0,0l46.6-26.3v46.4l-52,29.3l-52-29.3v-29.3c0-5.9-4.9-10.6-10.9-10.6
			c-6,0-10.9,4.8-10.9,10.6v35.5c0,3.8,2.1,7.3,5.4,9.2l62.9,35.5c1.7,0.9,3.6,1.4,5.4,1.4s3.8-0.5,5.5-1.4l62.9-35.5
			c3.4-1.9,5.4-5.4,5.4-9.2v-70.9C168.6,284.3,168.1,282.5,167.2,281"/>
		<path id="ShipBob" class="st1" d="M225.2,340.5c3.6,2.3,7.3,4.1,11.1,5.2c3.8,1.1,7.4,1.7,11.1,1.7c3.6,0,6.6-0.8,8.8-2.5
			c2.2-1.7,3.4-3.8,3.4-6.5c0-2.2-0.9-3.9-2.7-5.2s-4-2.4-6.7-3.4s-5.6-2-8.7-3c-3.1-1-6-2.4-8.7-4.1s-4.9-4-6.7-6.8
			c-1.8-2.8-2.7-6.5-2.7-11c0-3.5,0.7-6.7,2.2-9.5c1.4-2.9,3.4-5.4,6-7.4c2.6-2.1,5.7-3.7,9.3-4.8c3.6-1.1,7.6-1.7,11.9-1.7
			c3.6,0,7.3,0.3,10.9,1s7.2,1.7,10.9,3.2v16.6c-3.4-2-6.8-3.4-10.2-4.4c-3.4-0.9-6.8-1.4-10.1-1.4c-3.5,0-6.3,0.8-8.5,2.3
			c-2.2,1.5-3.2,3.5-3.2,6c0,2.1,0.9,3.8,2.7,5s4,2.3,6.6,3.2c2.7,0.9,5.5,1.9,8.7,3c3.1,1,6,2.4,8.7,4.1s4.9,4,6.6,6.9
			c1.8,2.8,2.7,6.6,2.7,11.2c0,3.6-0.7,6.8-2.2,9.8s-3.5,5.5-6.1,7.7c-2.6,2.1-5.7,3.8-9.4,4.9c-3.6,1.2-7.6,1.8-11.9,1.8
			c-8,0-15.8-1.7-23.5-5.1V340.5z M283.9,279.4h18.5v28.9c4.9-3.6,10.1-5.3,15.6-5.3c3,0,5.7,0.5,8.2,1.5c2.5,1,4.7,2.5,6.5,4.3
			c1.8,1.9,3.2,4.1,4.3,6.6c1,2.6,1.5,5.4,1.5,8.4v37.3h-18.5v-33.9c0-2.3-0.7-4.3-2.2-5.8c-1.5-1.5-3.4-2.3-5.6-2.3
			c-3.4,0-6.6,1.5-9.7,4.5v37.4h-18.5V279.4z M346,304.2h18.5v56.8H346V304.2z M345.1,289.1c0-3,0.9-5.5,2.8-7.3s4.4-2.8,7.4-2.8
			c2.9,0,5.3,0.9,7.2,2.8s2.9,4.3,2.9,7.3c0,2.9-1,5.3-2.9,7.2c-1.9,1.9-4.3,2.8-7.2,2.8c-3,0-5.5-0.9-7.4-2.8
			C346,294.4,345.1,292,345.1,289.1z M411.3,332.7c0-4.2-1-7.5-3.1-10.1c-2.1-2.5-4.8-3.8-8.1-3.8c-3.3,0-6.3,1.3-9,4v19.8
			c2.7,2.7,5.6,4,9,4c3.3,0,6-1.3,8.1-3.9C410.3,340.1,411.3,336.8,411.3,332.7z M372.5,304.2h18.5v3.1c4.3-3,8.8-4.4,13.3-4.4
			c3.8,0,7.3,0.7,10.5,2.2c3.2,1.5,5.9,3.5,8.2,6.1c2.3,2.6,4,5.7,5.3,9.4c1.3,3.6,1.9,7.7,1.9,12c0,4.4-0.6,8.4-1.9,12
			c-1.3,3.6-3,6.8-5.3,9.4c-2.3,2.6-5,4.7-8.2,6.1c-3.2,1.5-6.7,2.2-10.5,2.2c-4.5,0-9-1.5-13.3-4.4v28h-18.5V304.2z M454.9,346.5
			H467c2.9,0,5.2-0.9,7.1-2.6c1.9-1.7,2.8-3.9,2.8-6.5c0-2.7-0.9-4.8-2.8-6.5c-1.9-1.7-4.2-2.6-7.1-2.6h-12.2V346.5z M454.9,314.2
			h10.6c2.7,0,4.8-0.8,6.6-2.4c1.7-1.6,2.6-3.6,2.6-6c0-2.5-0.9-4.5-2.6-6.1c-1.7-1.6-3.9-2.3-6.6-2.3h-10.6V314.2z M436.8,282.9
			H469c3.5,0,6.7,0.5,9.5,1.6c2.9,1.1,5.4,2.5,7.5,4.4c2.1,1.9,3.8,4.1,4.9,6.7c1.2,2.6,1.8,5.4,1.8,8.4c0,3.9-0.9,7.3-2.7,10.3
			c-1.8,3-4.3,5.3-7.5,6.7c4.1,1.5,7.3,3.9,9.5,7.1c2.2,3.2,3.4,6.9,3.4,11.1c0,3.2-0.6,6.1-1.8,8.8c-1.2,2.7-2.9,5-5.1,6.9
			c-2.2,1.9-4.7,3.4-7.7,4.5c-3,1.1-6.3,1.6-9.8,1.6h-34.1V282.9z M497.6,332.7c0-4.4,0.8-8.4,2.3-12c1.5-3.6,3.6-6.8,6.4-9.4
			c2.7-2.6,6-4.7,9.7-6.1s7.9-2.2,12.3-2.2c4.5,0,8.6,0.7,12.3,2.2s7,3.5,9.7,6.1c2.7,2.6,4.8,5.7,6.3,9.4c1.5,3.6,2.3,7.7,2.3,12
			c0,4.3-0.8,8.3-2.3,12c-1.5,3.7-3.6,6.8-6.3,9.4c-2.7,2.6-5.9,4.7-9.7,6.1s-7.9,2.2-12.3,2.2c-4.5,0-8.6-0.7-12.3-2.2
			s-7-3.5-9.7-6.1c-2.7-2.6-4.8-5.8-6.4-9.4C498.3,341,497.6,337,497.6,332.7z M516.6,332.7c0,4.3,1.1,7.8,3.2,10.4
			c2.2,2.6,5,3.9,8.5,3.9c3.4,0,6.2-1.3,8.4-3.9c2.2-2.6,3.3-6.1,3.3-10.4c0-4.3-1.1-7.8-3.3-10.4c-2.2-2.6-5-3.9-8.4-3.9
			c-3.5,0-6.3,1.3-8.5,3.9C517.6,324.9,516.6,328.3,516.6,332.7z M602.1,332.7c0-4.2-1-7.5-3.1-10.1c-2.1-2.5-4.8-3.8-8.1-3.8
			s-6.3,1.3-9,4v19.8c2.7,2.7,5.6,4,9,4s6-1.3,8.1-3.9C601,340.1,602.1,336.8,602.1,332.7z M563.3,279.4h18.5v28
			c4.3-3,8.8-4.4,13.3-4.4c3.8,0,7.3,0.7,10.5,2.2c3.2,1.5,5.9,3.5,8.2,6.1c2.3,2.6,4,5.7,5.3,9.4c1.3,3.6,1.9,7.7,1.9,12
			c0,4.4-0.6,8.4-1.9,12s-3,6.8-5.3,9.4c-2.3,2.6-5,4.7-8.2,6.1c-3.2,1.5-6.7,2.2-10.5,2.2c-4.5,0-9-1.5-13.3-4.4v3.1h-18.5V279.4z"
			/>
	</g>
</g>
</svg>
